<?xml version="1.0" standalone="no"?>
<!DOCTYPE svg PUBLIC "-//W3C//DTD SVG 20010904//EN"
 "http://www.w3.org/TR/2001/REC-SVG-20010904/DTD/svg10.dtd">
<svg version="1.0" xmlns="http://www.w3.org/2000/svg"
 width="96.000000pt" height="96.000000pt" viewBox="0 0 96.000000 96.000000"
 preserveAspectRatio="xMidYMid meet">

<g transform="translate(0.000000,96.000000) scale(0.100000,-0.100000)"
fill="#000000" stroke="none">
<path d="M516 594 c-9 -8 -16 -26 -16 -40 0 -18 -5 -24 -22 -24 -19 0 -20 2
-8 10 11 7 5 10 -22 10 -27 0 -38 -4 -38 -15 0 -17 -45 -21 -55 -5 -3 6 -22
10 -41 10 l-34 0 0 -56 c0 -46 -4 -60 -22 -75 -11 -11 -16 -19 -10 -19 7 0 12
-13 12 -28 0 -23 -5 -28 -27 -30 -22 -1 -24 0 -13 8 13 8 12 10 -2 10 -14 0
-18 -9 -18 -40 l0 -40 281 0 281 0 -5 58 c-3 31 -8 66 -10 77 -3 11 -6 22 -7
25 0 3 -8 -7 -16 -22 -22 -41 -34 -34 -34 18 0 37 3 45 15 40 21 -8 19 21 -2
33 -10 6 -12 11 -5 11 6 0 12 5 12 10 0 6 -16 10 -35 10 -33 0 -35 -2 -35 -35
0 -30 -3 -35 -24 -35 -22 0 -25 5 -29 48 -3 39 -4 36 -5 -20 -1 -37 -6 -69
-11 -72 -8 -5 -20 99 -21 172 0 26 -12 28 -34 6z m9 -84 c7 -22 -4 -199 -13
-214 -3 -5 -9 -1 -13 10 -9 24 -11 208 -2 217 12 12 22 7 28 -13z m-208 -92
c-2 -18 -4 -4 -4 32 0 36 2 50 4 33 2 -18 2 -48 0 -65z m42 20 c-1 -85 -6 -80
-11 10 -3 34 -1 62 4 62 4 0 8 -33 7 -72z m84 55 c-18 -7 -16 -23 2 -23 12 0
15 -16 15 -85 0 -78 -2 -85 -20 -85 -18 0 -20 7 -20 85 0 69 -3 85 -15 85 -8
0 -15 7 -15 15 0 10 10 15 33 14 17 0 26 -3 20 -6z m211 -74 c20 -17 22 -24
12 -44 -10 -21 -12 -22 -18 -7 -4 10 -6 1 -5 -23 2 -30 -2 -40 -15 -43 -15 -3
-18 4 -18 51 0 31 -3 62 -6 71 -9 23 21 20 50 -5z m56 -63 c0 -8 -4 -18 -10
-21 -5 -3 -10 3 -10 14 0 12 5 21 10 21 6 0 10 -6 10 -14z"/>
<path d="M200 200 c0 -33 4 -60 10 -60 6 0 10 10 11 23 l0 22 9 -22 c5 -13 16
-23 25 -23 13 0 15 10 13 57 -2 34 -8 58 -15 61 -8 2 -13 -6 -14 -20 l0 -23
-9 23 c-17 40 -30 24 -30 -38z"/>
<path d="M284 246 c-3 -7 -4 -33 -2 -57 3 -41 5 -44 33 -44 29 0 30 2 33 49 3
51 -6 66 -41 66 -10 0 -20 -6 -23 -14z m33 -68 c-2 -13 -4 -3 -4 22 0 25 2 35
4 23 2 -13 2 -33 0 -45z"/>
<path d="M360 246 c0 -7 3 -34 6 -60 6 -40 10 -46 30 -46 23 0 28 11 36 90 4
37 -25 32 -33 -5 l-7 -30 -1 33 c-1 21 -6 32 -16 32 -8 0 -15 -6 -15 -14z"/>
<path d="M446 229 c-10 -53 -7 -89 8 -89 8 0 17 6 19 13 4 10 6 10 6 0 1 -7 8
-13 17 -13 12 0 14 8 9 48 -9 66 -12 72 -33 72 -14 0 -21 -9 -26 -31z m31 -41
c-3 -8 -6 -5 -6 6 -1 11 2 17 5 13 3 -3 4 -12 1 -19z"/>
<path d="M550 200 c0 -57 1 -60 25 -60 14 0 25 5 25 10 0 6 -4 10 -9 10 -11 0
-9 59 1 76 9 14 0 24 -24 24 -15 0 -18 -8 -18 -60z"/>
<path d="M610 200 c0 -45 3 -60 14 -60 8 0 17 12 19 28 l4 27 2 -27 c0 -17 7
-28 16 -28 11 0 14 12 13 48 -2 55 -12 72 -44 72 -23 0 -24 -3 -24 -60z m37
18 c-3 -8 -6 -5 -6 6 -1 11 2 17 5 13 3 -3 4 -12 1 -19z"/>
<path d="M696 229 c-10 -53 -7 -89 8 -89 8 0 17 6 19 13 4 10 6 10 6 0 1 -7 8
-13 17 -13 13 0 15 8 9 53 -9 62 -11 67 -34 67 -13 0 -21 -10 -25 -31z m31
-41 c-3 -8 -6 -5 -6 6 -1 11 2 17 5 13 3 -3 4 -12 1 -19z"/>
</g>
</svg>
